<svg version="1.1" xmlns="http://www.w3.org/2000/svg" viewBox="0 0 16 16">
<path d="M8,11.6c-1.9,0-3.4-1.5-3.6-3.3l-2.6-2C1.5,6.7,1.1,7.1,0.9,7.6c-0.1,0.2-0.1,0.5,0,0.7
	c1.4,2.6,4,4.4,7.1,4.4c0.7,0,1.3-0.1,1.9-0.3l-1.3-1C8.4,11.6,8.2,11.6,8,11.6z M15.8,13.1l-2.8-2.1c0.8-0.7,1.5-1.6,2-2.6
	c0.1-0.2,0.1-0.5,0-0.7C13.8,5,11.1,3.2,8,3.2c-1.3,0-2.6,0.3-3.7,0.9L1.1,1.7C1,1.5,0.7,1.6,0.6,1.8c0,0,0,0,0,0L0.1,2.4
	C-0.1,2.6,0,2.8,0.2,2.9l14.7,11.4c0.2,0.1,0.4,0.1,0.6-0.1c0,0,0,0,0,0l0.5-0.6C16.1,13.4,16,13.2,15.8,13.1z M11.3,9.5l-1-0.8
	c0.1-0.2,0.1-0.5,0.1-0.7c0-1.3-1-2.4-2.3-2.4c-0.2,0-0.5,0-0.7,0.1c0.2,0.2,0.2,0.5,0.2,0.7c0,0.1,0,0.2,0,0.2L5.7,5.2
	C6.4,4.7,7.2,4.4,8,4.4c2,0,3.6,1.6,3.6,3.6c0,0,0,0,0,0C11.6,8.5,11.5,9,11.3,9.5L11.3,9.5z"/>
</svg>
